<svg width="124" height="29" viewBox="0 0 124 29" fill="none" xmlns="http://www.w3.org/2000/svg">
<path d="M12.337 6.71299C12.3989 6.83825 12.4398 6.9724 12.4581 7.1103L12.7964 12.1127V12.1127L12.9644 14.627C12.9661 14.8856 13.0069 15.1425 13.0855 15.3894C13.2883 15.8686 13.7763 16.1731 14.3072 16.1519L22.3968 15.6257C22.7471 15.6199 23.0854 15.7502 23.3372 15.9879C23.5471 16.1859 23.6825 16.445 23.7252 16.7236L23.7396 16.8928C23.4048 21.5022 20.0003 25.3469 15.3744 26.3393C10.7486 27.3318 6.005 25.2353 3.7191 21.1881C3.0601 20.0123 2.64848 18.7199 2.50841 17.3867C2.4499 16.9921 2.42413 16.5935 2.43137 16.1948C2.42414 11.2529 5.9632 6.98055 10.9172 5.95058C11.5135 5.85826 12.098 6.17213 12.337 6.71299Z" fill="#1B1B1D"/>
<path opacity="0.4" d="M15.6392 2.41762C21.1801 2.55779 25.8371 6.51987 26.7335 11.8565L26.725 11.8959V11.8959L26.7005 11.9531L26.7039 12.1103C26.6912 12.3186 26.6104 12.5189 26.471 12.6808C26.3259 12.8494 26.1276 12.9642 25.9092 13.0088L25.776 13.0269L16.4426 13.6283C16.1322 13.6587 15.8231 13.5592 15.5922 13.3544C15.3998 13.1838 15.2768 12.9534 15.2421 12.7052L14.6156 3.43774C14.6047 3.40641 14.6047 3.37244 14.6156 3.3411C14.6242 3.08565 14.7372 2.84418 14.9296 2.67065C15.1219 2.49712 15.3775 2.40599 15.6392 2.41762Z" fill="#FFCC91"/>
<path d="M39.0634 19.3401C38.0734 19.3401 37.2229 19.1421 36.5119 18.7461C35.8099 18.3411 35.2699 17.7741 34.8919 17.0451C34.5139 16.3071 34.3249 15.4386 34.3249 14.4396C34.3249 13.4406 34.5139 12.5766 34.8919 11.8476C35.2699 11.1186 35.8099 10.5561 36.5119 10.1601C37.2229 9.75508 38.0734 9.55258 39.0634 9.55258C39.7294 9.55258 40.3279 9.64708 40.8589 9.83608C41.3989 10.0251 41.8624 10.3041 42.2494 10.6731L41.6824 12.0501C41.2594 11.7081 40.8499 11.4651 40.4539 11.3211C40.0669 11.1681 39.6214 11.0916 39.1174 11.0916C38.1544 11.0916 37.4164 11.3841 36.9034 11.9691C36.3994 12.5451 36.1474 13.3686 36.1474 14.4396C36.1474 15.5106 36.3994 16.3386 36.9034 16.9236C37.4164 17.5086 38.1544 17.8011 39.1174 17.8011C39.6214 17.8011 40.0669 17.7291 40.4539 17.5851C40.8499 17.4321 41.2594 17.1801 41.6824 16.8291L42.2494 18.2061C41.8624 18.5661 41.3989 18.8451 40.8589 19.0431C40.3279 19.2411 39.7294 19.3401 39.0634 19.3401ZM46.1373 19.3401C45.5433 19.3401 45.0213 19.2006 44.5713 18.9216C44.1213 18.6336 43.7703 18.2241 43.5183 17.6931C43.2663 17.1621 43.1403 16.5276 43.1403 15.7896C43.1403 15.0516 43.2663 14.4216 43.5183 13.8996C43.7703 13.3686 44.1213 12.9636 44.5713 12.6846C45.0213 12.3966 45.5433 12.2526 46.1373 12.2526C46.7133 12.2526 47.2173 12.3966 47.6493 12.6846C48.0903 12.9636 48.3828 13.3416 48.5268 13.8186H48.3783L48.5268 12.3876H50.1468C50.1198 12.6666 50.0928 12.9501 50.0658 13.2381C50.0478 13.5261 50.0388 13.8096 50.0388 14.0886V19.2051H48.3648L48.3513 17.8011H48.5133C48.3693 18.2691 48.0768 18.6426 47.6358 18.9216C47.1948 19.2006 46.6953 19.3401 46.1373 19.3401ZM46.6098 18.0441C47.1408 18.0441 47.5683 17.8596 47.8923 17.4906C48.2163 17.1126 48.3783 16.5456 48.3783 15.7896C48.3783 15.0336 48.2163 14.4711 47.8923 14.1021C47.5683 13.7331 47.1408 13.5486 46.6098 13.5486C46.0788 13.5486 45.6513 13.7331 45.3273 14.1021C45.0033 14.4711 44.8413 15.0336 44.8413 15.7896C44.8413 16.5456 44.9988 17.1126 45.3138 17.4906C45.6378 17.8596 46.0698 18.0441 46.6098 18.0441ZM51.8764 19.2051V14.0886C51.8764 13.8096 51.8674 13.5261 51.8494 13.2381C51.8314 12.9501 51.8044 12.6666 51.7684 12.3876H53.4019L53.5369 13.7376H53.3749C53.5639 13.2696 53.8519 12.9051 54.2389 12.6441C54.6349 12.3831 55.1029 12.2526 55.6429 12.2526C56.1829 12.2526 56.6284 12.3831 56.9794 12.6441C57.3394 12.8961 57.5914 13.2921 57.7354 13.8321H57.5194C57.7084 13.3461 58.0189 12.9636 58.4509 12.6846C58.8829 12.3966 59.3779 12.2526 59.9359 12.2526C60.7009 12.2526 61.2724 12.4776 61.6504 12.9276C62.0284 13.3776 62.2174 14.0796 62.2174 15.0336V19.2051H60.5299V15.1011C60.5299 14.5611 60.4399 14.1741 60.2599 13.9401C60.0799 13.6971 59.7919 13.5756 59.3959 13.5756C58.9279 13.5756 58.5589 13.7421 58.2889 14.0751C58.0189 14.3991 57.8839 14.8401 57.8839 15.3981V19.2051H56.1964V15.1011C56.1964 14.5611 56.1064 14.1741 55.9264 13.9401C55.7464 13.6971 55.4584 13.5756 55.0624 13.5756C54.5944 13.5756 54.2254 13.7421 53.9554 14.0751C53.6944 14.3991 53.5639 14.8401 53.5639 15.3981V19.2051H51.8764ZM64.0185 22.1211V14.0886C64.0185 13.8096 64.0095 13.5261 63.9915 13.2381C63.9735 12.9501 63.9465 12.6666 63.9105 12.3876H65.544L65.6925 13.8186H65.544C65.679 13.3416 65.9625 12.9636 66.3945 12.6846C66.8355 12.3966 67.344 12.2526 67.92 12.2526C68.523 12.2526 69.0495 12.3966 69.4995 12.6846C69.9495 12.9636 70.3005 13.3686 70.5525 13.8996C70.8045 14.4216 70.9305 15.0516 70.9305 15.7896C70.9305 16.5276 70.8045 17.1621 70.5525 17.6931C70.3005 18.2241 69.9495 18.6336 69.4995 18.9216C69.0495 19.2006 68.523 19.3401 67.92 19.3401C67.353 19.3401 66.8535 19.2006 66.4215 18.9216C65.9895 18.6426 65.7015 18.2691 65.5575 17.8011H65.706V22.1211H64.0185ZM67.4475 18.0441C67.9875 18.0441 68.4195 17.8596 68.7435 17.4906C69.0675 17.1126 69.2295 16.5456 69.2295 15.7896C69.2295 15.0336 69.0675 14.4711 68.7435 14.1021C68.4195 13.7331 67.9875 13.5486 67.4475 13.5486C66.9165 13.5486 66.489 13.7331 66.165 14.1021C65.841 14.4711 65.679 15.0336 65.679 15.7896C65.679 16.5456 65.841 17.1126 66.165 17.4906C66.489 17.8596 66.9165 18.0441 67.4475 18.0441ZM74.8471 19.3401C74.0101 19.3401 73.3846 19.1106 72.9706 18.6516C72.5566 18.1926 72.3496 17.4906 72.3496 16.5456V12.3876H74.0371V16.5321C74.0371 17.0361 74.1406 17.4096 74.3476 17.6526C74.5546 17.8866 74.8696 18.0036 75.2926 18.0036C75.7696 18.0036 76.1566 17.8416 76.4536 17.5176C76.7596 17.1936 76.9126 16.7661 76.9126 16.2351V12.3876H78.6001V19.2051H76.9531V17.8146H77.1421C76.9441 18.3006 76.6426 18.6786 76.2376 18.9486C75.8416 19.2096 75.3781 19.3401 74.8471 19.3401ZM82.8621 19.3401C82.2771 19.3401 81.7371 19.2726 81.2421 19.1376C80.7561 18.9936 80.3466 18.7956 80.0136 18.5436L80.4861 17.4096C80.8281 17.6436 81.2061 17.8236 81.6201 17.9496C82.0341 18.0756 82.4526 18.1386 82.8756 18.1386C83.3256 18.1386 83.6586 18.0621 83.8746 17.9091C84.0996 17.7561 84.2121 17.5491 84.2121 17.2881C84.2121 17.0811 84.1401 16.9191 83.9961 16.8021C83.8611 16.6761 83.6406 16.5816 83.3346 16.5186L81.9846 16.2621C81.4086 16.1361 80.9676 15.9201 80.6616 15.6141C80.3646 15.3081 80.2161 14.9076 80.2161 14.4126C80.2161 13.9896 80.3286 13.6161 80.5536 13.2921C80.7876 12.9681 81.1161 12.7161 81.5391 12.5361C81.9711 12.3471 82.4751 12.2526 83.0511 12.2526C83.5551 12.2526 84.0276 12.3201 84.4686 12.4551C84.9186 12.5901 85.2966 12.7926 85.6026 13.0626L85.1166 14.1561C84.8376 13.9311 84.5181 13.7556 84.1581 13.6296C83.7981 13.5036 83.4471 13.4406 83.1051 13.4406C82.6371 13.4406 82.2951 13.5261 82.0791 13.6971C81.8631 13.8591 81.7551 14.0706 81.7551 14.3316C81.7551 14.5296 81.8181 14.6961 81.9441 14.8311C82.0791 14.9571 82.2861 15.0516 82.5651 15.1146L83.9151 15.3711C84.5181 15.4881 84.9726 15.6951 85.2786 15.9921C85.5936 16.2801 85.7511 16.6761 85.7511 17.1801C85.7511 17.6301 85.6296 18.0171 85.3866 18.3411C85.1436 18.6651 84.8061 18.9126 84.3741 19.0836C83.9421 19.2546 83.4381 19.3401 82.8621 19.3401ZM91.0349 19.2051V9.68758H94.4909C95.5799 9.68758 96.4979 9.87658 97.2449 10.2546C98.0009 10.6236 98.5724 11.1636 98.9594 11.8746C99.3464 12.5766 99.5399 13.4316 99.5399 14.4396C99.5399 15.4386 99.3464 16.2936 98.9594 17.0046C98.5724 17.7156 98.0009 18.2601 97.2449 18.6381C96.4979 19.0161 95.5799 19.2051 94.4909 19.2051H91.0349ZM92.7764 17.7606H94.3829C95.5349 17.7606 96.3899 17.4861 96.9479 16.9371C97.5059 16.3881 97.7849 15.5556 97.7849 14.4396C97.7849 13.3146 97.5059 12.4821 96.9479 11.9421C96.3899 11.3931 95.5349 11.1186 94.3829 11.1186H92.7764V17.7606ZM101.17 19.2051V14.1291C101.17 13.8411 101.161 13.5486 101.143 13.2516C101.134 12.9546 101.111 12.6666 101.075 12.3876H102.709L102.898 14.2506H102.628C102.718 13.8006 102.866 13.4271 103.073 13.1301C103.289 12.8331 103.55 12.6126 103.856 12.4686C104.162 12.3246 104.495 12.2526 104.855 12.2526C105.017 12.2526 105.148 12.2616 105.247 12.2796C105.346 12.2886 105.445 12.3111 105.544 12.3471L105.53 13.8321C105.359 13.7601 105.211 13.7151 105.085 13.6971C104.968 13.6791 104.819 13.6701 104.639 13.6701C104.252 13.6701 103.924 13.7511 103.654 13.9131C103.393 14.0751 103.195 14.3001 103.06 14.5881C102.934 14.8761 102.871 15.2046 102.871 15.5736V19.2051H101.17ZM106.483 19.2051V12.3876H108.17V19.2051H106.483ZM106.388 11.1051V9.45808H108.265V11.1051H106.388ZM112.001 19.2051L109.058 12.3876H110.853L112.986 17.7201H112.568L114.755 12.3876H116.442L113.486 19.2051H112.001ZM120.508 19.3401C119.365 19.3401 118.47 19.0251 117.822 18.3951C117.174 17.7651 116.85 16.9011 116.85 15.8031C116.85 15.0921 116.989 14.4711 117.268 13.9401C117.547 13.4091 117.934 12.9951 118.429 12.6981C118.933 12.4011 119.518 12.2526 120.184 12.2526C120.841 12.2526 121.39 12.3921 121.831 12.6711C122.272 12.9501 122.605 13.3416 122.83 13.8456C123.064 14.3496 123.181 14.9391 123.181 15.6141V16.0596H118.213V15.1686H121.98L121.75 15.3576C121.75 14.7276 121.615 14.2461 121.345 13.9131C121.084 13.5801 120.702 13.4136 120.198 13.4136C119.64 13.4136 119.208 13.6116 118.902 14.0076C118.605 14.4036 118.456 14.9571 118.456 15.6681V15.8436C118.456 16.5816 118.636 17.1351 118.996 17.5041C119.365 17.8641 119.883 18.0441 120.549 18.0441C120.936 18.0441 121.296 17.9946 121.629 17.8956C121.971 17.7876 122.295 17.6166 122.601 17.3826L123.1 18.5166C122.776 18.7776 122.389 18.9801 121.939 19.1241C121.489 19.2681 121.012 19.3401 120.508 19.3401Z" fill="#1B1B1D"/>
</svg>
